<svg width="1885" height="282" viewBox="0 0 1885 282" fill="none" xmlns="http://www.w3.org/2000/svg">
<g clip-path="url(#clip0_124_295)">
<g clip-path="url(#clip1_124_295)">
<mask id="mask0_124_295" style="mask-type:luminance" maskUnits="userSpaceOnUse" x="171" y="0" width="250" height="282">
<path d="M421 0H171V282H421V0Z" fill="white"/>
</mask>
<g mask="url(#mask0_124_295)">
<path d="M190.647 270.349C204.533 243.338 218.536 217.214 232.583 191.885L232.586 191.881C248.006 164.136 263.641 137.273 279.491 111.42L284.026 104.021L287.97 111.751C301.986 139.226 315.786 166.823 329.424 194.546L329.425 194.55C342.093 220.358 354.711 246.553 367.241 273.13C375.405 265.389 383.303 258.299 390.905 251.826C398.786 245.115 406.434 238.966 413.85 233.383C393.106 196.299 372.815 158.862 352.977 121.071C333.447 83.8636 314.407 46.2003 295.811 8.13672C289.951 13.2181 284.007 18.2989 277.961 23.3544L274.65 26.1113C266.849 32.5983 259.003 38.8923 251.077 44.9943L269.328 76.5105L270.673 78.8316L269.425 81.2071C256.546 105.714 242.54 131.604 227.459 158.878H227.457C212.741 185.556 196.025 215.112 177.415 247.605L190.647 270.349Z" fill="white"/>
<path d="M279.341 261.901C285.926 254.765 292.146 248.199 298.064 242.173L298.078 242.159C303.905 236.271 309.518 230.726 314.943 225.523C308.348 217.597 302.038 209.682 295.978 201.821L295.968 201.808C290.395 194.529 284.957 187.163 279.683 179.712C274.265 187.03 268.687 194.346 262.972 201.654L262.962 201.667C256.757 209.548 250.385 217.387 243.811 225.141C249.086 230.17 254.611 235.611 260.319 241.535L260.32 241.534C266.228 247.61 272.549 254.417 279.341 261.901Z" fill="#ECB32F"/>
</g>
</g>
<g clip-path="url(#clip2_124_295)">
<mask id="mask1_124_295" style="mask-type:luminance" maskUnits="userSpaceOnUse" x="449" y="0" width="190" height="282">
<path d="M639 0H449V282H639V0Z" fill="white"/>
</mask>
<g mask="url(#mask1_124_295)">
<path d="M462.593 276.89C467.045 276.547 471.585 276.263 476.133 276.08L476.136 276.079C480.799 275.895 485.539 275.818 490.272 275.8L492.3 275.796C497.078 275.794 501.832 275.845 506.591 275.996L508.631 276.066C512.255 276.203 515.822 276.403 519.346 276.642C517.674 260.902 516.243 245.495 515.141 230.523C513.858 213.882 512.983 197.727 512.396 182.128L512.228 177.649L516.7 177.556C556.837 176.725 586.202 168.376 605.443 153.183L605.448 153.178C624.534 138.152 634.287 115.93 634.274 85.6658C634.265 68.9149 630.652 54.6477 623.607 42.7C616.572 30.7685 606.212 21.1971 592.41 14.0801C586 11.0426 576.702 8.73407 564.081 7.26085L564.081 7.26123C551.463 5.8561 531.461 5.11087 503.839 5.12344L463.215 5.14086L454.041 15.5506C454.936 37.2845 455.564 58.3004 456.023 78.6612C456.495 99.5174 456.735 119.963 456.744 139.93C456.753 159.898 456.532 180.616 456.079 202.017C455.638 222.921 455.031 244.868 454.154 267.923L462.593 276.89ZM512.384 160.592L512.374 139.084C512.366 121.04 512.531 102.312 512.868 82.9716C513.207 63.5703 513.659 43.5435 514.345 22.7586L514.507 17.8171L519.388 18.5459C538.658 21.4212 553.876 28.9554 564.624 41.5155L565.133 42.1172C575.723 54.8149 580.9 71.4 581.068 91.3799L581.072 92.3343C581.08 112.63 575.795 129.388 564.693 141.978C553.611 154.612 537.643 162.171 517.379 164.955L512.386 165.642L512.384 160.592Z" fill="white"/>
</g>
</g>
<g clip-path="url(#clip3_124_295)">
<mask id="mask2_124_295" style="mask-type:luminance" maskUnits="userSpaceOnUse" x="667" y="0" width="172" height="282">
<path d="M839 0H667V282H839V0Z" fill="white"/>
</mask>
<g mask="url(#mask2_124_295)">
<path d="M681.428 277.517C691.695 276.971 702.564 276.542 713.936 276.233C726.071 275.901 739.246 275.705 753.571 275.64C770.324 275.564 785.587 275.632 799.415 275.914C810.557 276.141 821.245 276.508 831.474 276.974L820.553 252.383C809.393 253.272 799.1 253.934 789.63 254.418C779.255 254.949 769.288 255.201 759.73 255.244L757.667 255.24C755.37 255.224 752.376 255.172 748.724 255.087L748.722 255.086C743.871 254.97 740.215 254.92 737.79 254.931L733.442 254.949L733.361 250.608C730.482 97.7979 730.582 172.654 732.365 31.4091L732.417 27.2669L736.558 27.064C739.636 26.9135 743.037 26.7583 746.683 26.6709H746.687C749.461 26.6067 753.211 26.5773 757.907 26.5533L762.918 26.5302C772.568 26.4861 781.648 26.5817 790.04 26.8202L790.041 26.8193C797.342 27.0249 804.377 27.3351 811.147 27.7033L820.274 4.99219C809.098 5.55633 798.403 5.987 788.19 6.31824C775.891 6.71783 764.039 6.97779 752.641 7.02899C741.532 7.07881 729.968 6.92558 717.898 6.63691L713.349 6.52248C703.26 6.25611 692.532 5.89235 681.098 5.39558L671.831 16.1382C672.82 37.8786 673.534 58.9612 674.078 79.2584L674.078 79.2594C674.635 100.182 674.96 120.626 675.05 140.592C675.141 160.559 675.003 181.279 674.638 202.682L674.638 202.683C674.281 223.522 673.761 245.539 672.978 268.54L681.428 277.517Z" fill="white"/>
<path d="M778.679 177.669C789.642 166.204 804.287 152.663 820.231 138.851C808.159 123.042 794.699 107.106 785.155 91.5811C772.596 103.305 755.958 117.721 739.777 131.063C751.255 144.65 766.699 161.338 778.679 177.669Z" fill="#ECB32F"/>
</g>
</g>
<g clip-path="url(#clip4_124_295)">
<mask id="mask3_124_295" style="mask-type:luminance" maskUnits="userSpaceOnUse" x="995" y="0" width="147" height="282">
<path d="M1142 0H995V282H1142V0Z" fill="white"/>
</mask>
<g mask="url(#mask3_124_295)">
<path d="M1041.17 275.786C1054.55 273.553 1065.86 268.629 1075.2 261.036C1084.57 253.422 1092.06 243.201 1097.65 230.216C1101.36 221.209 1103.49 210.645 1103.83 198.412C1104.11 186.063 1102.56 169.267 1098.99 147.952C1098.17 143.036 1097.26 137.77 1096.25 132.124L1095.21 126.35C1093.78 118.48 1092.95 113.84 1092.71 112.417V112.414C1087.84 83.3124 1087.32 61.303 1091.7 46.9709C1093.94 39.6684 1097.63 33.6475 1102.89 29.1244C1108.13 24.6063 1114.71 21.775 1122.39 20.4918C1125.31 20.0047 1128.43 19.6935 1131.8 19.6139L1131.81 19.6136C1132.8 19.5927 1133.81 19.5844 1134.84 19.5849L1129.29 9.14665C1122.88 6.85883 1116.7 5.36597 1110.74 4.64558C1104.35 3.93445 1097.84 4.09885 1091.21 5.20622L1091.2 5.20581C1067.47 9.16627 1051.07 21.7519 1041.49 43.2058C1031.97 64.6425 1029.88 93.485 1035.81 130.121L1036.09 131.871C1036.43 133.878 1037.27 138.504 1038.6 145.724L1040.1 153.808C1042.05 164.302 1043.74 173.751 1045.17 182.153L1045.76 185.688C1049.58 208.456 1049.08 226.591 1043.55 239.695C1037.86 253.176 1026.9 261.184 1011.46 263.762C1008.57 264.243 1005.66 264.443 1002.67 264.284C1002.52 264.276 1002.37 264.267 1002.22 264.257L1007.59 274.821C1011.87 276.057 1016.34 276.816 1021.09 277.108L1022.17 277.166C1027.51 277.365 1033.41 277.001 1039.86 275.996L1041.17 275.786Z" fill="white"/>
</g>
</g>
<g clip-path="url(#clip5_124_295)">
<mask id="mask4_124_295" style="mask-type:luminance" maskUnits="userSpaceOnUse" x="1170" y="0" width="224" height="282">
<path d="M1394 0H1170V282H1394V0Z" fill="white"/>
</mask>
<g mask="url(#mask4_124_295)">
<path d="M1388.78 267.735C1387.96 247.471 1387.35 226.949 1386.91 206.04C1386.46 184.569 1386.24 162.345 1386.19 139.373C1386.15 119.272 1386.25 99.9542 1386.51 81.4662L1386.64 73.594C1386.99 53.3098 1387.51 33.6634 1388.25 14.5945L1379.31 4.49121C1374.12 4.9364 1369.82 5.22574 1366.38 5.42087L1364.77 5.50835C1361.18 5.70023 1357.74 5.78368 1354.48 5.8068L1353.1 5.81343C1349.61 5.82138 1345.81 5.75782 1341.77 5.55646C1338.61 5.45158 1334.23 5.22286 1328.69 4.90658C1329.09 21.5762 1329.43 39.1583 1329.68 57.5993C1329.96 77.8203 1330.12 99.895 1330.17 123.89L1330.18 128.31L1325.75 128.32L1237.2 128.501L1232.77 128.51L1232.76 124.09L1232.72 102.17C1232.69 88.2019 1232.75 73.9157 1232.93 59.3102L1233.02 53.0313C1233.26 37.654 1233.63 21.709 1234.07 5.10297C1228.52 5.44243 1224.12 5.69004 1220.97 5.80648C1217.45 5.99698 1214.12 6.07861 1211.05 6.10093L1209.75 6.10772C1206.15 6.11523 1202.35 6.05359 1198.25 5.85165L1198.25 5.85129C1194.67 5.67245 1189.84 5.38418 1183.78 4.88917L1174.58 15.0698C1175.39 34.0601 1176 52.5047 1176.47 70.4447L1176.67 78.3445C1177.18 99.2629 1177.46 119.773 1177.5 139.802C1177.54 159.831 1177.35 180.547 1176.93 202.085L1176.93 202.086L1176.76 210.188C1176.37 228.658 1175.83 247.972 1175.1 268.132L1183.59 277.103C1187.71 276.759 1191.88 276.469 1196.06 276.282C1200.96 276.062 1205.79 275.983 1210.6 275.974C1215.52 275.964 1220.41 276.024 1225.26 276.224L1225.26 276.222C1228.41 276.352 1231.54 276.543 1234.64 276.771C1234.13 258.283 1233.68 241.291 1233.38 225.865C1233.05 209.071 1232.9 193.24 1232.87 178.444L1232.83 157.897L1232.82 153.478L1237.25 153.469L1325.8 153.286L1330.23 153.277L1330.24 157.698C1330.28 176.951 1330.23 195.626 1330.09 213.68L1330.02 221.379L1329.94 229.022C1329.77 245.125 1329.53 261.001 1329.24 276.578C1331.75 276.383 1334.28 276.211 1336.83 276.078L1338.65 275.989C1343.49 275.77 1348.38 275.69 1353.31 275.68C1358.23 275.67 1363.17 275.73 1368.14 275.928V275.929C1372.35 276.098 1376.51 276.37 1380.62 276.696L1388.78 267.735Z" fill="white"/>
</g>
</g>
<g clip-path="url(#clip6_124_295)">
<mask id="mask5_124_295" style="mask-type:luminance" maskUnits="userSpaceOnUse" x="1422" y="0" width="245" height="282">
<path d="M1667 0H1422V282H1667V0Z" fill="white"/>
</mask>
<g mask="url(#mask5_124_295)">
<path d="M1578.07 270.49C1594.58 264.369 1609.66 254.393 1623.32 240.529C1634.13 229.326 1642.74 216.419 1649.04 201.837C1655.36 187.169 1659.38 170.836 1661.13 152.671C1663.31 129.975 1661.73 108.726 1656.43 89.0224C1651.14 69.3209 1642.55 52.6269 1630.75 38.7857L1630.74 38.7794C1622.32 28.8712 1612.52 21.1881 1601.34 15.6829C1590.48 10.3366 1578.25 6.88434 1564.59 5.43223L1563.27 5.29823C1547.09 3.74398 1531.7 5.07055 1517.1 9.30871L1517.1 9.30922C1502.51 13.5463 1488.99 20.6166 1476.54 30.4975L1476.53 30.502L1476.53 30.5072L1475.24 31.5399C1461.97 42.3032 1451.22 55.9509 1443.06 72.4985L1443.06 72.5035C1434.63 89.5373 1429.34 108.637 1427.31 129.788C1425.39 149.687 1426.71 169.067 1431.2 187.882L1431.64 189.702C1436.35 208.498 1443.57 224.366 1453.24 237.401L1454.18 238.653C1462.83 249.826 1473.09 258.599 1485.08 265.096L1485.08 265.099C1497.02 271.592 1510.39 275.604 1525.18 277.026C1543.9 278.825 1561.55 276.615 1578.07 270.49ZM1582.22 220.436C1574.44 236.206 1563.9 248.631 1550.63 257.643L1548.39 259.162L1546.05 257.808C1525.1 245.707 1509.98 227.183 1500.65 202.455L1500.65 202.448C1491.39 177.774 1488.52 148.315 1491.82 114.103C1493.86 92.8212 1498.67 74.1853 1506.27 58.1295L1506.28 58.1205L1506.28 58.111C1513.94 42.1201 1523.94 29.6768 1536.49 20.95L1538.68 19.4266L1541.02 20.706C1562.49 32.4432 1578.04 50.951 1587.65 75.8541L1587.66 75.8592C1597.24 100.772 1600.27 130.389 1596.98 164.62C1594.98 185.366 1590.36 203.466 1582.95 218.947L1582.22 220.436Z" fill="#FFFDFD"/>
<path d="M1542.23 183.54C1550.06 175.763 1557.32 168.717 1564.07 162.464L1564.07 162.465C1570.63 156.332 1576.96 150.732 1582.98 145.577C1576.31 136.831 1569.86 128 1563.6 119.13L1563.6 119.123L1563.59 119.117C1557.74 110.77 1552.05 102.424 1546.54 94.085C1540.34 101.96 1533.96 109.728 1527.43 117.393L1527.42 117.403L1524.46 120.831C1518.38 127.847 1512.1 134.89 1505.57 141.929C1511.17 147.881 1516.97 154.23 1522.98 160.979L1522.98 160.985L1522.99 160.991C1529.07 167.872 1535.46 175.374 1542.23 183.54Z" fill="#ECB32F"/>
</g>
</g>
<g clip-path="url(#clip7_124_295)">
<mask id="mask6_124_295" style="mask-type:luminance" maskUnits="userSpaceOnUse" x="1695" y="0" width="190" height="282">
<path d="M1885 0H1695V282H1885V0Z" fill="white"/>
</mask>
<g mask="url(#mask6_124_295)">
<path d="M1708.59 276.89C1713.05 276.547 1717.58 276.263 1722.13 276.08L1722.14 276.079C1726.8 275.895 1731.54 275.818 1736.27 275.8L1738.3 275.796C1743.08 275.794 1747.83 275.845 1752.59 275.996L1754.63 276.066C1758.25 276.203 1761.82 276.403 1765.35 276.642C1763.67 260.902 1762.24 245.495 1761.14 230.523C1759.86 213.882 1758.98 197.727 1758.4 182.128L1758.23 177.649L1762.7 177.556C1802.84 176.725 1832.2 168.376 1851.44 153.183L1851.45 153.178C1870.53 138.152 1880.29 115.93 1880.27 85.6658C1880.27 68.9149 1876.65 54.6477 1869.61 42.7C1862.57 30.7685 1852.21 21.1971 1838.41 14.0801C1832 11.0426 1822.7 8.73407 1810.08 7.26085L1810.08 7.26123C1797.46 5.8561 1777.46 5.11087 1749.84 5.12344L1709.21 5.14086L1700.04 15.5506C1700.94 37.2845 1701.56 58.3004 1702.02 78.6612C1702.49 99.5174 1702.74 119.963 1702.74 139.93C1702.75 159.898 1702.53 180.616 1702.08 202.017C1701.64 222.921 1701.03 244.868 1700.15 267.923L1708.59 276.89ZM1758.38 160.592L1758.37 139.084C1758.37 121.04 1758.53 102.312 1758.87 82.9716C1759.21 63.5703 1759.66 43.5435 1760.34 22.7586L1760.51 17.8171L1765.39 18.5459C1784.66 21.4212 1799.88 28.9554 1810.62 41.5155L1811.13 42.1172C1821.72 54.8149 1826.9 71.4 1827.07 91.3799L1827.07 92.3343C1827.08 112.63 1821.79 129.388 1810.69 141.978C1799.61 154.612 1783.64 162.171 1763.38 164.955L1758.39 165.642L1758.38 160.592Z" fill="white"/>
</g>
</g>
<path d="M103.998 276.77C105.878 276.64 107.754 276.534 109.583 276.456L109.586 276.457C111.832 276.364 114.048 276.309 116.256 276.292L118.462 276.29C121.467 276.303 124.418 276.382 127.287 276.599V276.6C128.886 276.682 130.463 276.787 132.022 276.898C143.395 235.884 155.992 194.753 169.758 153.505C183.61 112.006 198.647 70.3816 214.923 28.6386L194.627 9.72814L135.644 178.218L131.932 188.819L127.284 178.593C112.491 146.049 98.9236 114.897 86.7562 85.2755C75.5138 57.969 65.5993 32.2389 56.9637 8.1377C50.1241 14.0407 43.1028 19.5574 35.8112 24.6456C27.2394 30.6626 18.5021 36.0146 9.55155 40.6989L6.26367 48.0706C23.3846 83.9251 40.1176 120.935 56.461 159.164C72.6725 197.084 88.4994 236.265 103.998 276.77Z" fill="white"/>
</g>
<defs>
<clipPath id="clip0_124_295">
<rect width="1885" height="282" fill="white"/>
</clipPath>
<clipPath id="clip1_124_295">
<rect width="250" height="282" fill="white" transform="translate(171)"/>
</clipPath>
<clipPath id="clip2_124_295">
<rect width="190" height="282" fill="white" transform="translate(449)"/>
</clipPath>
<clipPath id="clip3_124_295">
<rect width="172" height="282" fill="white" transform="translate(667)"/>
</clipPath>
<clipPath id="clip4_124_295">
<rect width="147" height="282" fill="white" transform="translate(995)"/>
</clipPath>
<clipPath id="clip5_124_295">
<rect width="224" height="282" fill="white" transform="translate(1170)"/>
</clipPath>
<clipPath id="clip6_124_295">
<rect width="245" height="282" fill="white" transform="translate(1422)"/>
</clipPath>
<clipPath id="clip7_124_295">
<rect width="190" height="282" fill="white" transform="translate(1695)"/>
</clipPath>
</defs>
</svg>
